<?xml version="1.0" encoding="UTF-8"?>
<!-- Generator: Adobe Illustrator 27.5.0, SVG Export Plug-In . SVG Version: 6.00 Build 0)  -->
<svg xmlns="http://www.w3.org/2000/svg" xmlns:xlink="http://www.w3.org/1999/xlink" version="1.1" id="Layer_1" x="0px" y="0px" viewBox="0 0 576 150.4" style="enable-background:new 0 0 576 150.4;" xml:space="preserve">
<style type="text/css">
	.st0{fill:#007CBA;}
	.st1{fill:#3CB4E5;}
	.st2{fill:none;}
	.st3{fill:#0E74B6;}
	.st4{font-family:'MyriadPro-Regular';}
	.st5{font-size:18px;}
	.st6{fill:#0F74B7;}
	.st7{font-size:11px;}
</style>
<g>
	<g>
		<g>
			<path class="st0" d="M220.1,98.7c-2.7,1.8-5.7,3.1-8.8,4c-3.1,0.9-6.4,1.4-9.7,1.4c-3.5,0-6.9-0.5-10.2-1.6c-3.3-1-6.3-2.5-9-4.5     c-3.8-2.8-6.8-6.2-8.8-10.2c-2.1-4-3.1-8.5-3.1-13.3c0-8.5,3-15.6,8.9-21.2c6-5.6,13.4-8.4,22.3-8.4c3.3,0,6.4,0.4,9.4,1.3     c3,0.9,5.9,2.2,8.7,3.9L218.9,61c-2.5-2.4-5-4.1-7.7-5.3c-2.7-1.2-5.5-1.8-8.5-1.8c-6.1,0-11.1,1.9-15,5.8     c-3.9,3.8-5.9,8.8-5.9,14.8c0,5.8,1.9,10.7,5.7,14.4s8.6,5.7,14.5,5.7c3.3,0,6.5-0.7,9.6-2c3.1-1.3,6.1-3.4,9.2-6.2L220.1,98.7z"></path>
			<path class="st0" d="M231.5,102.3V46.8h10.9v55.5H231.5z"></path>
			<path class="st0" d="M299.2,98.7c-2.7,1.8-5.7,3.1-8.8,4c-3.1,0.9-6.4,1.4-9.7,1.4c-3.5,0-6.9-0.5-10.2-1.6c-3.3-1-6.3-2.5-9-4.5     c-3.8-2.8-6.8-6.2-8.8-10.2c-2.1-4-3.1-8.5-3.1-13.3c0-8.5,3-15.6,8.9-21.2c6-5.6,13.4-8.4,22.3-8.4c3.3,0,6.4,0.4,9.4,1.3     c3,0.9,5.9,2.2,8.7,3.9L297.9,61c-2.5-2.4-5-4.1-7.7-5.3c-2.7-1.2-5.5-1.8-8.5-1.8c-6.1,0-11.1,1.9-15,5.8     c-3.9,3.8-5.9,8.8-5.9,14.8c0,5.8,1.9,10.7,5.7,14.4c3.8,3.8,8.6,5.7,14.5,5.7c3.3,0,6.5-0.7,9.6-2c3.1-1.3,6.1-3.4,9.2-6.2     L299.2,98.7z"></path>
			<path class="st0" d="M316,102.3h-10.9L335.3,45h0.8l29.2,57.3H354l-5-9.9h-28L316,102.3z M325.1,84.5h20.2l-10-20.7L325.1,84.5z"></path>
			<path class="st0" d="M386.9,102.3V46.8h10.8v46.8h26.4v8.7H386.9z"></path>
			<path class="st0" d="M432.3,102.3V46.8h10.9v55.5H432.3z"></path>
			<path class="st0" d="M455.5,102.3V46.8h36.2v8.5h-25.5v14h22.7v8.5h-22.7v24.5H455.5z"></path>
			<path class="st0" d="M500.2,102.3V46.8H536v8.5h-25.3V69h21.7v8.5h-21.7v16.2h25.7v8.6H500.2z"></path>
		</g>
		<g>
			<path class="st0" d="M37.2,77.5c14.1-6.4,20.3,7.7,20.9,9c7.2,16.9,23.5,28.7,42.4,28.7c24.7,0,46.5-20.1,48-45.4     c4.8,37.6-24.4,68.5-60.7,68.5c-26.3,0-49.8-17.3-57.5-42C30.1,96.3,25.3,82.9,37.2,77.5z"></path>
			<path class="st1" d="M138.9,73.5c-14.1,6.4-20.3-7.7-20.9-9c-7.2-16.9-23.5-28.7-42.4-28.7c-24.7,0-46.5,20.1-48,45.4     c-4.8-37.6,24.4-68.5,60.7-68.5c26.3,0,49.8,17.3,57.5,42C145.9,54.6,150.8,68.1,138.9,73.5z"></path>
		</g>
		<g>
			<path class="st1" d="M395.7,138c-1.3,0-2.5-0.2-3.7-0.7c-1.1-0.5-2.1-1.1-2.9-1.9c-0.8-0.8-1.4-1.8-1.9-2.9s-0.7-2.3-0.7-3.6     s0.2-2.5,0.7-3.6s1.1-2.1,1.9-2.9c0.8-0.8,1.7-1.5,2.9-1.9c1.1-0.5,2.3-0.7,3.7-0.7c1.3,0,2.5,0.2,3.7,0.7     c1.1,0.5,2.1,1.1,2.9,1.9c0.8,0.8,1.4,1.8,1.9,2.9s0.7,2.3,0.7,3.6s-0.2,2.5-0.7,3.6s-1.1,2.1-1.9,2.9c-0.8,0.8-1.7,1.5-2.9,1.9     C398.2,137.8,397,138,395.7,138z M395.7,135.8c1,0,1.9-0.2,2.7-0.6c0.8-0.4,1.5-0.9,2.1-1.5c0.6-0.6,1-1.4,1.3-2.2     c0.3-0.8,0.5-1.7,0.5-2.7s-0.2-1.8-0.5-2.7c-0.3-0.8-0.8-1.6-1.3-2.2c-0.6-0.6-1.3-1.1-2.1-1.5c-0.8-0.4-1.7-0.6-2.7-0.6     c-1,0-1.9,0.2-2.7,0.6c-0.8,0.4-1.5,0.9-2.1,1.5c-0.6,0.6-1,1.4-1.3,2.2c-0.3,0.8-0.5,1.7-0.5,2.7s0.2,1.8,0.5,2.7     c0.3,0.8,0.8,1.6,1.3,2.2c0.6,0.6,1.3,1.1,2.1,1.5C393.8,135.6,394.7,135.8,395.7,135.8z"></path>
			<path class="st1" d="M408.1,120.2H419v2.2h-8.6v5.4h8v2.2h-8v7.5h-2.4V120.2z"></path>
			<path class="st1" d="M434.4,120.2h2.1l7.4,17.3h-2.7l-1.7-4.3h-8.3l-1.7,4.3h-2.7L434.4,120.2z M438.7,131.2l-3.2-8h0l-3.3,8     H438.7z"></path>
			<path class="st1" d="M446.1,120.2h3.5l5.5,13.1h0.1l5.5-13.1h3.5v17.3h-2.4v-14.3h0l-5.9,14.3h-1.6l-5.9-14.3h0v14.3h-2.4V120.2z     "></path>
			<path class="st1" d="M468.4,120.2h11.2v2.2h-8.8v5.2h8.2v2.2h-8.2v5.6h9.3v2.2h-11.6V120.2z"></path>
			<path class="st1" d="M483.4,120.2h6.1c1.1,0,2,0.2,2.7,0.5c0.7,0.3,1.3,0.7,1.7,1.2c0.4,0.5,0.7,1,0.9,1.6     c0.2,0.6,0.2,1.1,0.2,1.7c0,0.6-0.1,1.1-0.3,1.6c-0.2,0.5-0.5,1-0.8,1.4c-0.4,0.4-0.8,0.8-1.3,1.1c-0.5,0.3-1.1,0.5-1.8,0.5     l4.9,7.9h-2.9l-4.4-7.6h-2.6v7.6h-2.4V120.2z M485.8,127.9h3.1c0.5,0,0.9,0,1.4-0.1c0.4-0.1,0.8-0.2,1.2-0.4     c0.4-0.2,0.6-0.5,0.8-0.8c0.2-0.4,0.3-0.8,0.3-1.4s-0.1-1.1-0.3-1.4c-0.2-0.4-0.5-0.6-0.8-0.8s-0.8-0.3-1.2-0.4s-0.9-0.1-1.4-0.1     h-3.1V127.9z"></path>
			<path class="st1" d="M498.4,120.2h2.4v17.3h-2.4V120.2z"></path>
			<path class="st1" d="M517.3,124c-0.5-0.6-1.1-1.1-1.9-1.5c-0.8-0.3-1.5-0.5-2.3-0.5c-1,0-1.9,0.2-2.7,0.6c-0.8,0.4-1.5,0.9-2,1.5     c-0.6,0.6-1,1.4-1.3,2.2c-0.3,0.9-0.5,1.8-0.5,2.8c0,0.9,0.1,1.8,0.4,2.6s0.7,1.5,1.3,2.2c0.6,0.6,1.2,1.1,2,1.5     c0.8,0.4,1.7,0.5,2.7,0.5c1,0,1.9-0.2,2.6-0.6c0.8-0.4,1.4-1,1.9-1.7l2,1.5c-0.1,0.2-0.4,0.4-0.7,0.8c-0.3,0.3-0.8,0.7-1.3,1     s-1.2,0.6-1.9,0.9S514,138,513,138c-1.4,0-2.6-0.3-3.7-0.8s-2-1.2-2.8-2.1c-0.8-0.8-1.4-1.8-1.8-2.9c-0.4-1.1-0.6-2.2-0.6-3.2     c0-1.3,0.2-2.6,0.7-3.7c0.4-1.1,1.1-2.1,1.8-2.9c0.8-0.8,1.7-1.5,2.9-1.9c1.1-0.5,2.3-0.7,3.7-0.7c1.1,0,2.3,0.2,3.4,0.7     c1.1,0.4,2,1.1,2.7,2L517.3,124z"></path>
			<path class="st1" d="M527.9,120.2h2.1l7.4,17.3h-2.7l-1.7-4.3h-8.3l-1.7,4.3h-2.7L527.9,120.2z M532.1,131.2l-3.2-8h0l-3.3,8     H532.1z"></path>
		</g>
	</g>
	<rect x="139.2" y="22.8" class="st2" width="20.3" height="17.3"></rect>
	<text transform="matrix(1 0 0 1 139.158 35.5387)" class="st3 st4 st5">®</text>
	<rect x="540.6" y="39.4" class="st2" width="16.2" height="14.8"></rect>
	<text transform="matrix(1 0 0 1 540.576 47.1917)" class="st6 st4 st7">™</text>
</g>
</svg>