<?xml version="1.0" encoding="UTF-8"?>
<!-- Generator: Adobe Illustrator 27.2.0, SVG Export Plug-In . SVG Version: 6.00 Build 0)  -->
<svg xmlns="http://www.w3.org/2000/svg" xmlns:xlink="http://www.w3.org/1999/xlink" version="1.1" id="Layer_1" x="0px" y="0px" viewBox="0 0 368.37 59.96" style="enable-background:new 0 0 368.37 59.96;" xml:space="preserve">
<style type="text/css">
	.st0{fill:#24ABE2;}
	.st1{fill:#0C75B8;}
	.st2{fill:#1274B7;}
</style>
<g>
	<g>
		<g>
			<g>
				<path class="st0" d="M90.7,15.45H55.88c0,0-10.64-7.32-10.99-7.58c-0.43-0.31-1.16,0.08-0.86,0.32      c0.25,0.2,7.82,6.51,7.82,18.62c0,12.12-7.8,18.05-8.05,18.26c-0.39,0.32,0.58,0.79,1.05,0.45C45.32,45.19,55.14,38,55.14,38      l33,0.05l7.7-11.23L90.7,15.45z M52.97,31.18c0,0,1.64-10.21-3.73-18.64c6.11,4.4,6.41,4.47,6.41,4.47h34.27l1.69,3.73H55.29      c0,0,3.13,4.85,8.2,4.85c5.07,0,29.23,0,29.23,0l1.04,1.91l-2.51,3.68H52.97z"></path>
			</g>
		</g>
	</g>
	<g>
		<g>
			<g>
				<path class="st1" d="M48.42,22.95c-2.71-2.38-4.81-2.38-5.75-2.38H14.45c-0.28,0-0.47-0.26-0.35-0.49l0.84-1.54      c0.33-0.61,1.03-1,1.8-1h25.93c0.93,0,2.95,0.01,5.49,1.39c0.24,0.13,0.54-0.08,0.45-0.32C45.4,10.72,37.6,5.15,28.49,5.15      c-10.28,0-18.88,7.09-21.12,16.61c-0.8,3.42,0.62,7.04,3.86,9.04C13.17,32,14.65,32,15.4,32h28.22c0.28,0,0.47,0.26,0.35,0.49      l-0.84,1.54c-0.33,0.61-1.03,1-1.8,1H15.4c-1.13,0-3.88,0-7.21-2.5c-0.22-0.17-0.57,0.02-0.49,0.27      c2.66,8.9,10.96,15.39,20.79,15.39c11.98,0,21.69-9.63,21.69-21.52C50.18,25.27,49.54,23.93,48.42,22.95z"></path>
			</g>
		</g>
	</g>
	<g>
		<g>
			<path class="st1" d="M102.12,30.45l5.78-0.36c0.13,0.94,0.38,1.65,0.76,2.14c0.63,0.8,1.52,1.19,2.68,1.19     c0.87,0,1.53-0.2,2-0.61c0.47-0.41,0.7-0.88,0.7-1.41c0-0.51-0.22-0.96-0.67-1.37c-0.45-0.4-1.48-0.78-3.11-1.14     c-2.66-0.6-4.56-1.39-5.7-2.39c-1.14-0.99-1.72-2.26-1.72-3.79c0-1.01,0.29-1.96,0.88-2.86c0.59-0.9,1.47-1.6,2.64-2.12     c1.17-0.51,2.79-0.77,4.83-0.77c2.51,0,4.42,0.47,5.74,1.4c1.32,0.93,2.1,2.42,2.35,4.46l-5.72,0.34     c-0.15-0.88-0.47-1.53-0.96-1.93s-1.16-0.6-2.02-0.6c-0.71,0-1.24,0.15-1.59,0.45c-0.36,0.3-0.54,0.66-0.54,1.09     c0,0.31,0.15,0.59,0.44,0.84c0.29,0.26,0.96,0.5,2.04,0.72c2.65,0.57,4.55,1.15,5.7,1.74c1.15,0.59,1.98,1.31,2.51,2.18     c0.52,0.87,0.78,1.84,0.78,2.91c0,1.26-0.35,2.42-1.05,3.48c-0.7,1.06-1.67,1.87-2.92,2.42s-2.83,0.82-4.73,0.82     c-3.34,0-5.66-0.64-6.94-1.93C103.02,34.07,102.29,32.43,102.12,30.45z"></path>
		</g>
		<g>
			<path class="st1" d="M123.68,17.3h16.27v4.19h-10.19v3.12h9.45v4.01h-9.45v3.87h10.48v4.45h-16.56V17.3z"></path>
		</g>
		<g>
			<path class="st1" d="M157.28,28.91l5.32,1.61c-0.36,1.49-0.92,2.74-1.69,3.74c-0.77,1-1.72,1.76-2.86,2.27     c-1.14,0.51-2.59,0.76-4.35,0.76c-2.14,0-3.88-0.31-5.23-0.93c-1.35-0.62-2.52-1.71-3.5-3.27c-0.98-1.56-1.47-3.56-1.47-6     c0-3.25,0.86-5.75,2.59-7.49c1.73-1.75,4.17-2.62,7.34-2.62c2.47,0,4.42,0.5,5.84,1.5c1.42,1,2.47,2.54,3.16,4.61l-5.36,1.19     c-0.19-0.6-0.38-1.04-0.59-1.31c-0.34-0.46-0.76-0.82-1.25-1.07c-0.49-0.25-1.04-0.38-1.65-0.38c-1.38,0-2.43,0.55-3.16,1.66     c-0.55,0.82-0.83,2.11-0.83,3.87c0,2.18,0.33,3.67,0.99,4.48c0.66,0.81,1.59,1.21,2.79,1.21c1.16,0,2.04-0.33,2.63-0.98     S157.01,30.15,157.28,28.91z"></path>
		</g>
		<g>
			<path class="st1" d="M179.02,17.3h6.06v11.71c0,1.16-0.18,2.26-0.54,3.29c-0.36,1.03-0.93,1.93-1.7,2.71     c-0.77,0.77-1.58,1.31-2.43,1.63c-1.18,0.44-2.6,0.66-4.25,0.66c-0.96,0-2-0.07-3.13-0.2s-2.08-0.4-2.83-0.8     s-1.45-0.96-2.08-1.69c-0.63-0.73-1.06-1.49-1.29-2.26c-0.38-1.25-0.56-2.36-0.56-3.32V17.3h6.06v11.98 c0,1.07,0.3,1.91,0.89,2.51c0.59,0.6,1.42,0.9,2.47,0.9c1.04,0,1.87-0.3,2.46-0.89c0.59-0.59,0.89-1.43,0.89-2.52V17.3z"></path>
		</g>
		<g>
			<path class="st1" d="M189.86,36.95V17.3h10.12c1.88,0,3.31,0.16,4.3,0.48c0.99,0.32,1.79,0.92,2.4,1.79s0.91,1.93,0.91,3.18     c0,1.09-0.23,2.03-0.7,2.82c-0.46,0.79-1.1,1.43-1.92,1.92c-0.52,0.31-1.23,0.57-2.13,0.78c0.72,0.24,1.25,0.48,1.58,0.72     c0.22,0.16,0.55,0.51,0.97,1.03c0.42,0.53,0.71,0.93,0.85,1.22l2.94,5.69h-6.86l-3.24-6c-0.41-0.78-0.78-1.28-1.1-1.51     c-0.44-0.3-0.93-0.46-1.49-0.46h-0.54v7.97H189.86z M195.96,25.26h2.56c0.28,0,0.81-0.09,1.61-0.27c0.4-0.08,0.73-0.29,0.99-0.62     c0.25-0.33,0.38-0.71,0.38-1.14c0-0.63-0.2-1.12-0.6-1.46c-0.4-0.34-1.16-0.51-2.27-0.51h-2.67V25.26z"></path>
		</g>
		<g>
			<path class="st1" d="M212.06,17.3h6.08v19.65h-6.08V17.3z"></path>
		</g>
		<g>
			<path class="st1" d="M221.81,17.3h18.45v4.85h-6.19v14.8H228v-14.8h-6.19V17.3z"></path>
		</g>
		<g>
			<path class="st1" d="M241.71,17.3h6.74l3.96,6.63l3.97-6.63h6.71l-7.64,11.42v8.23h-6.08v-8.23L241.71,17.3z"></path>
		</g>
		<g>
			<path class="st1" d="M275.54,17.3h10.09c2.2,0,3.84,0.52,4.94,1.57c1.09,1.05,1.64,2.53,1.64,4.46c0,1.98-0.6,3.53-1.79,4.65     c-1.19,1.12-3.01,1.67-5.46,1.67h-3.32v7.29h-6.1V17.3z M281.64,25.68h1.49c1.17,0,1.99-0.2,2.47-0.61     c0.47-0.41,0.71-0.93,0.71-1.56c0-0.62-0.21-1.14-0.62-1.57c-0.41-0.43-1.18-0.64-2.32-0.64h-1.73V25.68z"></path>
		</g>
		<g>
			<path class="st1" d="M296.08,17.3h6.07v14.81h9.48v4.84h-15.55V17.3z"></path>
		</g>
		<g>
			<path class="st1" d="M327.15,33.7h-6.89l-0.96,3.24h-6.2l7.38-19.65h6.62l7.38,19.65h-6.36L327.15,33.7z M325.89,29.46     l-2.17-7.06l-2.15,7.06H325.89z"></path>
		</g>
		<g>
			<path class="st1" d="M337.15,17.3h5.67l7.4,10.87V17.3h5.72v19.65h-5.72l-7.36-10.79v10.79h-5.71V17.3z"></path>
		</g>
	</g>
	<g>
		<path class="st2" d="M359.86,13.97v0.34h-0.65v1.7h-0.41v-1.7h-0.65v-0.34H359.86z M362.07,16.01l-0.08-1.2    c-0.01-0.16-0.01-0.35-0.02-0.57h-0.02c-0.05,0.18-0.11,0.42-0.17,0.61l-0.37,1.13h-0.42l-0.37-1.16c-0.04-0.16-0.1-0.4-0.14-0.58    h-0.02c0,0.19-0.01,0.38-0.02,0.57l-0.07,1.2h-0.39l0.15-2.04h0.61l0.35,1c0.05,0.16,0.08,0.31,0.14,0.52h0.01    c0.05-0.19,0.1-0.36,0.14-0.51l0.35-1.01h0.59l0.16,2.04H362.07z"></path>
	</g>
	<g>
		<path class="st2" d="M94.03,11.24v0.34h-0.65v1.7h-0.41v-1.7h-0.65v-0.34H94.03z M96.24,13.28l-0.08-1.2    c-0.01-0.16-0.01-0.35-0.02-0.57h-0.02c-0.05,0.18-0.11,0.42-0.17,0.61l-0.37,1.13h-0.42l-0.37-1.16c-0.04-0.16-0.1-0.4-0.14-0.58    h-0.02c0,0.19-0.01,0.38-0.02,0.57l-0.07,1.2h-0.39l0.15-2.04h0.61l0.35,1c0.05,0.16,0.08,0.31,0.14,0.52h0.01    c0.05-0.19,0.1-0.36,0.14-0.51l0.35-1.01h0.59l0.16,2.04H96.24z"></path>
	</g>
</g>
</svg>